<svg width="534" height="161" viewBox="0 0 534 161" fill="none" xmlns="http://www.w3.org/2000/svg">
<path d="M193.637 55.7067H202.409L207.96 71.8421L213.579 55.7067H222.282L213.922 77.8843L220.089 93.4018L233.863 55.5694H244.143L224.681 104.319H216.526L207.96 83.8579L199.462 104.319H191.307L171.913 55.5694H182.056L195.898 93.4018L201.929 77.8843L193.637 55.7067Z" fill="white"/>
<path d="M258.338 55.5694H267.932L285.818 104.319H276.087L271.564 92.1659H254.569L250.114 104.319H240.383L258.338 55.5694ZM269.851 85.5057L263.135 65.388L256.145 85.5057H269.851Z" fill="white"/>
<path d="M291.484 55.5694L303.476 78.5023L315.675 55.5694H325.885L308.205 87.2909V104.319H298.816V87.1536L281.205 55.5694H291.484Z" fill="white"/>
<path d="M331.241 104.319V55.5694H351.869C354.107 55.5694 356.163 56.0271 358.036 56.9426C359.909 57.8581 361.531 59.094 362.902 60.6503C364.318 62.2066 365.414 63.9461 366.191 65.8686C366.968 67.7911 367.356 69.7594 367.356 71.7735C367.356 74.5199 366.716 77.1291 365.437 79.6009C364.158 82.0727 362.399 84.0867 360.161 85.6431C357.922 87.1994 355.272 87.9776 352.211 87.9776H340.698V104.319H331.241ZM340.698 79.6695H351.663C352.805 79.6695 353.833 79.3491 354.747 78.7083C355.66 78.0674 356.391 77.1519 356.94 75.9618C357.488 74.7259 357.762 73.3298 357.762 71.7735C357.762 70.0798 357.442 68.6379 356.803 67.4478C356.209 66.2577 355.409 65.3651 354.404 64.77C353.445 64.1749 352.394 63.8774 351.252 63.8774H340.698V79.6695Z" fill="#45C2B1"/>
<path d="M394.702 104.662C391.139 104.662 387.895 103.976 384.971 102.602C382.093 101.229 379.603 99.3753 377.502 97.0409C375.446 94.6606 373.847 92.0057 372.705 89.0761C371.562 86.1008 370.991 83.0568 370.991 79.9442C370.991 76.6942 371.585 73.6044 372.773 70.6749C374.007 67.6996 375.674 65.0675 377.776 62.7788C379.923 60.4443 382.436 58.6134 385.314 57.2859C388.238 55.9127 391.436 55.2261 394.908 55.2261C398.426 55.2261 401.624 55.9356 404.502 57.3546C407.426 58.7736 409.916 60.6732 411.972 63.0535C414.027 65.4337 415.626 68.0886 416.769 71.0182C417.911 73.9477 418.482 76.9688 418.482 80.0815C418.482 83.2857 417.888 86.3755 416.7 89.3508C415.512 92.2803 413.845 94.9124 411.697 97.2468C409.596 99.5356 407.083 101.344 404.159 102.671C401.281 103.999 398.129 104.662 394.702 104.662ZM380.585 79.9442C380.585 82.0498 380.905 84.0867 381.545 86.055C382.184 88.0233 383.098 89.7856 384.286 91.342C385.519 92.8525 387.004 94.0655 388.74 94.981C390.522 95.8507 392.532 96.2856 394.771 96.2856C397.055 96.2856 399.088 95.8278 400.87 94.9123C402.652 93.9511 404.136 92.6923 405.324 91.136C406.512 89.5339 407.403 87.7716 407.997 85.849C408.636 83.8808 408.956 81.9125 408.956 79.9442C408.956 77.8386 408.614 75.8245 407.928 73.902C407.289 71.9337 406.352 70.1943 405.119 68.6837C403.931 67.1274 402.446 65.9144 400.664 65.0447C398.928 64.1292 396.964 63.6714 394.771 63.6714C392.441 63.6714 390.385 64.1521 388.603 65.1133C386.867 66.0288 385.405 67.2647 384.217 68.821C383.03 70.3774 382.116 72.1168 381.476 74.0393C380.882 75.9618 380.585 77.9301 380.585 79.9442Z" fill="#45C2B1"/>
<path d="M425.736 104.319V55.5694H435.193V104.319H425.736Z" fill="#45C2B1"/>
<path d="M454.802 73.0094V104.319H445.345V55.5694H452.883L478.033 87.7029V55.638H487.49V104.319H479.609L454.802 73.0094Z" fill="#45C2B1"/>
<path d="M534 63.8774H518.444V104.319H509.056V63.8774H493.5V55.5694H534V63.8774Z" fill="#45C2B1"/>
<path d="M129.158 48.9908C146.376 48.9908 160.334 62.9488 160.334 80.1668C160.334 97.3848 146.376 111.343 129.158 111.343H111.343V129.158C111.343 146.376 97.3847 160.334 80.1667 160.334C62.9487 160.334 48.9907 146.376 48.9907 129.158V102.435H57.8981V129.158C57.8981 141.456 67.8681 151.426 80.1667 151.426C92.4653 151.426 102.435 141.456 102.435 129.158V102.435H129.158C141.456 102.435 151.426 92.4654 151.426 80.1668C151.426 67.8682 141.456 57.8983 129.158 57.8983H48.9907V48.9908H129.158Z" fill="white"/>
<path d="M102.435 31.176C102.435 18.8774 92.4654 8.90742 80.1668 8.90742C67.8682 8.90742 57.8982 18.8774 57.8982 31.176V57.8982H31.176C18.8774 57.8982 8.90742 67.8682 8.90742 80.1668C8.90743 92.4654 18.8774 102.435 31.176 102.435V111.343C13.958 111.343 3.03552e-06 97.3848 0 80.1668C7.52623e-07 62.9488 13.958 48.9908 31.176 48.9908H48.9908V31.176C48.9908 13.958 62.9488 0 80.1668 0C97.3848 0 111.343 13.958 111.343 31.176V111.343H31.176V102.435H102.435V31.176Z" fill="#45C2B1"/>
<path d="M189.424 139.449V123.671H196.147C196.849 123.671 197.489 123.812 198.068 124.093C198.663 124.375 199.174 124.76 199.6 125.249C200.027 125.723 200.363 126.256 200.607 126.849C200.851 127.427 200.973 128.019 200.973 128.627C200.973 129.486 200.774 130.301 200.378 131.071C199.997 131.827 199.456 132.442 198.754 132.916C198.053 133.39 197.23 133.627 196.285 133.627H191.025V139.449H189.424ZM191.025 132.249H196.216C196.856 132.249 197.413 132.079 197.885 131.738C198.358 131.397 198.724 130.953 198.983 130.405C199.242 129.856 199.372 129.264 199.372 128.627C199.372 127.975 199.219 127.375 198.914 126.827C198.61 126.279 198.206 125.849 197.702 125.538C197.215 125.212 196.673 125.049 196.079 125.049H191.025V132.249Z" fill="white"/>
<path d="M218.998 123.671H220.348L227.094 139.449H225.402L223.298 134.516H216.003L213.922 139.449H212.207L218.998 123.671ZM222.932 133.293L219.662 125.493L216.346 133.293H222.932Z" fill="white"/>
<path d="M250.818 125.049H245.032V139.449H243.431V125.049H237.646V123.671H250.818V125.049Z" fill="white"/>
<path d="M264.684 139.449V123.671H266.285V139.449H264.684Z" fill="white"/>
<path d="M292.699 138.071V139.449H281.791V123.671H292.493V125.049H283.392V130.738H291.327V132.049H283.392V138.071H292.699Z" fill="white"/>
<path d="M308.761 126.538V139.449H307.16V123.671H308.487L319.143 136.827V123.693H320.744V139.449H319.258L308.761 126.538Z" fill="white"/>
<path d="M347.785 125.049H342V139.449H340.399V125.049H334.613V123.671H347.785V125.049Z" fill="white"/>
<path d="M378.244 139.449V123.671H384.968C385.669 123.671 386.309 123.812 386.889 124.093C387.483 124.375 387.994 124.76 388.421 125.249C388.848 125.723 389.183 126.256 389.427 126.849C389.671 127.427 389.793 128.019 389.793 128.627C389.793 129.486 389.595 130.301 389.198 131.071C388.817 131.827 388.276 132.442 387.575 132.916C386.873 133.39 386.05 133.627 385.105 133.627H379.845V139.449H378.244ZM379.845 132.249H385.036C385.677 132.249 386.233 132.079 386.706 131.738C387.178 131.397 387.544 130.953 387.803 130.405C388.063 129.856 388.192 129.264 388.192 128.627C388.192 127.975 388.04 127.375 387.735 126.827C387.43 126.279 387.026 125.849 386.523 125.538C386.035 125.212 385.494 125.049 384.899 125.049H379.845V132.249Z" fill="white"/>
<path d="M410.445 139.56C409.301 139.56 408.265 139.338 407.335 138.893C406.405 138.449 405.604 137.849 404.933 137.093C404.263 136.323 403.744 135.464 403.378 134.516C403.013 133.553 402.83 132.567 402.83 131.56C402.83 130.508 403.02 129.508 403.401 128.56C403.782 127.597 404.316 126.745 405.002 126.005C405.703 125.249 406.519 124.656 407.449 124.227C408.379 123.782 409.385 123.56 410.468 123.56C411.611 123.56 412.648 123.79 413.578 124.249C414.508 124.708 415.3 125.323 415.956 126.093C416.627 126.864 417.145 127.723 417.511 128.671C417.877 129.619 418.06 130.59 418.06 131.582C418.06 132.634 417.869 133.642 417.488 134.605C417.107 135.553 416.573 136.405 415.887 137.16C415.201 137.901 414.393 138.486 413.463 138.916C412.533 139.345 411.527 139.56 410.445 139.56ZM404.43 131.56C404.43 132.419 404.575 133.249 404.865 134.049C405.155 134.834 405.566 135.538 406.1 136.16C406.633 136.767 407.266 137.256 407.998 137.627C408.745 137.982 409.56 138.16 410.445 138.16C411.375 138.16 412.206 137.975 412.937 137.605C413.684 137.219 414.317 136.716 414.835 136.093C415.369 135.456 415.773 134.745 416.047 133.96C416.322 133.175 416.459 132.375 416.459 131.56C416.459 130.701 416.314 129.879 416.025 129.093C415.735 128.308 415.316 127.605 414.767 126.982C414.233 126.36 413.601 125.871 412.869 125.516C412.137 125.16 411.329 124.982 410.445 124.982C409.53 124.982 408.699 125.167 407.952 125.538C407.22 125.908 406.588 126.412 406.054 127.049C405.536 127.671 405.132 128.375 404.842 129.16C404.568 129.945 404.43 130.745 404.43 131.56Z" fill="white"/>
<path d="M432.512 139.449V123.671H439.373C440.074 123.671 440.714 123.812 441.294 124.093C441.873 124.375 442.376 124.76 442.803 125.249C443.245 125.723 443.58 126.256 443.809 126.849C444.053 127.427 444.175 128.019 444.175 128.627C444.175 129.382 444.023 130.093 443.718 130.76C443.428 131.427 443.009 131.99 442.46 132.449C441.926 132.908 441.294 133.212 440.562 133.36L444.541 139.449H442.734L438.915 133.627H434.113V139.449H432.512ZM434.113 132.249H439.418C440.059 132.249 440.615 132.079 441.088 131.738C441.56 131.397 441.926 130.953 442.185 130.405C442.445 129.842 442.574 129.249 442.574 128.627C442.574 127.99 442.422 127.405 442.117 126.871C441.827 126.323 441.431 125.886 440.928 125.56C440.44 125.219 439.891 125.049 439.281 125.049H434.113V132.249Z" fill="white"/>
<path d="M470.256 125.049H464.47V139.449H462.87V125.049H457.084V123.671H470.256V125.049Z" fill="white"/>
<path d="M487.59 123.671H488.939L495.686 139.449H493.993L491.889 134.516H484.594L482.513 139.449H480.798L487.59 123.671ZM491.523 133.293L488.253 125.493L484.937 133.293H491.523Z" fill="white"/>
<path d="M509.447 139.449V123.671H511.048V138.071H520.424V139.449H509.447Z" fill="white"/>
</svg>
